<?xml version="1.0" encoding="utf-8"?>
<!-- Generator: Adobe Illustrator 24.3.0, SVG Export Plug-In . SVG Version: 6.00 Build 0)  -->
<svg version="1.1" xmlns="http://www.w3.org/2000/svg" xmlns:xlink="http://www.w3.org/1999/xlink" x="0px" y="0px"
	 viewBox="0 0 595.3 841.9" style="enable-background:new 0 0 595.3 841.9;" xml:space="preserve">
<style type="text/css">
	.st0{fill:#4C433E;}
	.st1{fill:#433D3D;}
	.st2{fill:#6E6A62;}
	.st3{fill:#6D6964;}
	.st4{fill:#75716A;}
	.st5{fill:#5E5953;}
	.st6{fill:#EF7F30;}
	.st7{fill:#FACE43;}
	.st8{fill:#54A6D6;}
	.st9{fill:#4380A9;}
	.st10{fill:#219AD5;}
	.st11{fill:#2F77A3;}
	.st12{fill:#F8DA76;}
	.st13{fill:#3F9FD5;}
	.st14{fill:#0E6E9D;}
	.st15{fill:#F5E191;}
	.st16{fill:#3D6581;}
	.st17{fill:#69B6DF;}
	.st18{fill:#E98C50;}
	.st19{fill:#49ABDD;}
	.st20{fill:#2B5B7B;}
	.st21{fill:#EE8840;}
	.st22{fill:#F8C51C;}
	.st23{fill:#F4C124;}
	.st24{fill:#6C5B51;}
	.st25{fill:#594D47;}
	.st26{fill:#9F9C98;}
	.st27{fill:#C0BCBA;}
	.st28{fill:#44B649;}
</style>
<g id="Layer_1">
	<g>
		<g>
			<path class="st0" d="M296.7,443.3c0,0.2,0,0.3,0,0.5c-0.2,0-0.3,0-0.5,0c0,0,0,0,0,0c-0.1-0.2-0.2-0.3-0.3-0.5
				c-3.6-7.3-7.1-14.7-10.7-22c-0.3-0.5-0.6-1-1-1.5c-0.1-0.3-0.3-0.7-0.4-1c-0.2-0.3-0.3-0.6-0.5-1c0,0,0,0,0,0
				c-1.9-3.8-3.9-7.7-5.8-11.5c-0.4-1.6-1.1-3-2.9-3.4c-4.4-2.2-8.9-4.5-13.3-6.7c-0.9-0.8-1.2-0.1-1.6,0.5
				c-1.6,2.7-3.1,5.4-4.7,8.2c-0.2-0.2-0.4-0.4-0.6-0.6c1.6-2.9,3.1-5.9,4.9-9.1c-7.9-3.8-15.7-7.7-23.7-11.6
				c7.9-3.9,15.6-7.6,23.2-11.3c0.4-0.4,0.7-0.7,1.1-1.1c1.1,0.3,2-0.2,2.8-0.8c3.5-1.8,7.1-3.6,10.6-5.3c2.3-0.5,3.8-2,4.5-4.3
				c1.9-3.8,3.8-7.7,5.7-11.5c0.4-0.8,1.4-1.4,0.4-2.4c0.2-0.2,0.4-0.4,0.5-0.6c1-0.1,1.1-1.1,1.4-1.7c3.2-6.4,6.3-12.9,9.5-19.3
				c0.4-0.8,0.8-1.5,1.3-2.6c3.9,8,7.7,15.8,11.6,23.7c2.6-1.4,4.9-2.6,7.3-3.9c0,0.3,0,0.7,0,1c-2.2,1.3-4.4,2.6-6.8,4
				c0.4,0.7,0.7,1.3,1,1.8c0.1,0.2,0.3,0.4,0.4,0.6c0,0-0.1,0.1-0.1,0.1c2.2,4.2,4.3,8.5,6.5,12.7c0.8,1.6,2.5,1.8,3.8,2.5
				c3.5,1.8,7,3.5,10.5,5.3c0.8,0.4,1.5,1.4,2.5,0.3c0.3,0.5,0.7,0.9,1,1.4c5.4,2.6,10.8,5.2,16.2,7.8c0,0,0,0,0,0
				c0.3,0.2,0.7,0.3,1,0.5c0,0,0,0,0,0c1.9,0.9,3.8,1.9,6.1,3c-8,3.9-15.8,7.7-23.7,11.6c1.3,2.5,2.6,4.9,3.9,7.3
				c-0.2,0.2-0.4,0.4-0.7,0.6c-1.2-2.1-2.4-4.2-3.6-6.3c-0.4-0.7-0.7-1.3-1.6-0.5c-0.3,0.2-0.6,0.3-0.9,0.5c0,0,0,0,0,0
				c-4.2,2.1-8.3,4.2-12.5,6.3c-1.7,0.2-2.2,1.5-2.7,2.8c-1.4,2.7-2.8,5.4-4.2,8.2c-0.9,1.9-1.8,3.8-2.7,5.8c-0.3,0.5-0.6,1-0.9,1.5
				c0,0,0,0,0,0c-0.2-0.7-0.3-1.4-0.5-2c0.4-0.5,0.9-1,1.2-1.6c1.9-3.6,3.7-7.2,5.5-10.9c0.3-0.5,0.5-1.1,0.9-1.9
				c-2.5,1.1-4.6,2.1-6.6,3c0-1.1,0.9-1.1,1.6-1.5c2-1.2,4-2.3,6.1-3.4c0.1-0.1,0.1-0.2,0.1-0.3c2.2-4,4.4-8.1,6.5-12.1
				c1.2-2.2,2.3-4.5,3.4-6.8c0-0.2,0.1-0.5,0-0.7c-3.3-6.2-6.5-12.3-9.8-18.5c-1-0.8-2-1.6-3-2.3c0.6,0,1.1,0,1.9,0
				c-2.4-4.7-4.8-9.4-7.3-14.2c-3.4,1.9-6.6,3.6-10,5.5c1.1,0.6,2,1.1,2.8,1.6c0.3,0.2,0.5,0.6,0.7,1c-1.3-0.5-2.5-1-3.8-1.5l0,0
				c-0.2-0.1-0.4-0.2-0.6-0.4c-0.5,0.1-0.9,0.1-1.4,0.2c0-0.3-0.1-0.6-0.1-0.9c-3.2-1.8-6.5-3.6-9.7-5.4c-2.1,3.1-6.7,12.5-6.8,14.1
				c0.2,0,0.5-0.1,0.7-0.1c0,0.2,0,0.4,0,0.7c-0.6,0.5-1.2,0.9-1.8,1.4c-1,0-1,0.8-1.3,1.5c-3.1,5.8-6.1,11.6-9.2,17.3
				c-0.1,0.3-0.1,0.6-0.1,0.9c3.2,6.3,6.4,12.6,9.7,18.8c0.3,0.5,1.1,0.7,1.7,1c0.6,0.4,1.1,0.9,1.7,1.2c2.2,1.1,4.4,2.2,6.6,3.4
				c3,1.5,6,3,8.9,4.5c1,1,2-0.3,3-0.1c-0.3,0.4-0.5,0.8-0.7,1.2c0.9,0.7,1.8,1.4,2.7,2.2c-1.3,0.6-1.9-0.7-2.8-1
				c-0.8-0.3-1.5-0.7-2.4-0.2c-2.9,1.7-5.9,3.3-8.9,5c-1.2,0.9-0.1,1.7,0.2,2.4c3.1,6.5,6.3,13,9.5,19.5
				C296.4,442.3,296.5,442.8,296.7,443.3z M265.5,382.8c0-0.4,0.1-0.9,0.1-1.3c0.2,0.2,0.4,0.5,0.8,1c3-5.7,5.9-11.2,8.8-16.8
				c-0.5-0.1-0.7-0.1-0.8-0.1c-4.2,2.1-8.4,4.2-12.6,6.3c-0.4,0.2-0.5,0.9-0.7,1.3c-0.3,0-0.7,0-1,0c-0.8,0.2-1.6,0.3-2.3,0.6
				c-5.9,2.8-11.8,5.7-17.7,8.6c-0.6,0.3-1.2,0.7-2,1.1c0.7,0.4,1.3,0.8,1.8,1c4.3,2.1,8.6,4.2,12.9,6.3c2,1,4,2,6,3
				c0.5,0.3,1.1,0.5,1.3-0.4c1.7-3,3.4-6,5.1-9.1C265.5,384,265.4,383.4,265.5,382.8z M331.8,372.2c-1.6-0.8-3.1-1.6-4.7-2.4
				c-1.5-0.8-3-1.6-4.5-2.3c-1.5-0.7-2.9-1.8-5-2.1c2.9,5.5,5.6,10.7,8.4,15.9c0.2,0.3,0.6,0.5,0.8,0.7c0,0.9,0,1.8,0,2.7
				c-0.4,0.4-0.8,0.7-1.1,1.2c-2.6,4.9-5.1,9.7-7.7,14.6c-0.2,0.3-0.2,0.7-0.4,1.3c4.7-2.4,9-4.5,13.3-6.7c0.5-0.3,0.9-0.8,1.4-1.2
				c0.6-0.1,1.1-0.1,1.7-0.2c6.8-3.4,13.6-6.8,20.8-10.3c-2.1-1-3.9-1.8-5.6-2.7c-5.1-2.5-10.1-5-15.2-7.6
				C333.3,372.9,332.5,372.6,331.8,372.2z M286,346.7c0,0.2,0,0.5,0.1,0.6c3.1,1.7,6.1,3.4,9.2,5.1c0.8,0.4,1.5,0.4,2.3,0
				c3-1.7,5.9-3.3,8.9-5c1.1-0.5,0.3-1.1,0.1-1.5c-2.1-4.3-4.2-8.6-6.3-12.9c-1.2-2.5-2.5-5-3.8-7.7c-0.5,0.9-0.8,1.5-1.1,2.1
				c-2.9,5.9-5.8,11.8-8.6,17.6C286.5,345.5,286.3,346.2,286,346.7z M278.6,404.9c-0.2,0.1-0.3,0.2-0.5,0.3c2.4,4.6,4.7,9.3,7.1,14
				c3.4-1.9,6.6-3.6,10.1-5.5C289.6,410.7,284.1,407.8,278.6,404.9z M260.8,394.8c4.9,2.5,9.5,4.8,14,7.1
				c-2.5-5.9-5.4-11.5-8.6-17.2C264.3,388.2,262.6,391.3,260.8,394.8z"/>
			<path class="st1" d="M368.1,453.9c0.9,0.8,1.8,1.9,2.8,2.5c25.1,16.1,49.5,33.2,72.6,52.1c15.7,12.8,30.7,26.4,44.2,41.5
				c6.3,7,12.3,14.3,17.4,22.3c2.9,4.5,5.5,9.2,7.3,14.3c0.9,2.5,1.5,5.1,1.3,7.7c-0.2,3.9-2.7,6.3-6.6,6.5
				c-3.6,0.2-6.9-0.9-10.2-2.2c-5.9-2.4-11.2-5.8-16.3-9.4c-12.7-9-24-19.7-34.7-30.9c-19-19.8-36-41.2-51.8-63.5
				c-8.2-11.7-16.1-23.7-24-35.6c-1.4-2-2.8-3.8-5-4.9c-0.4-0.2-0.8-0.5-1.2-0.8c0.3-0.1,0.6-0.3,0.9-0.4c0.3,0.2,0.6,0.4,0.9,0.6
				C366.4,454.2,367.1,455,368.1,453.9z M372.8,461.2c1,1.6,1.9,3.3,3,4.9c14,21.3,28.7,42,44.8,61.8c9,11,18.3,21.7,28.2,31.9
				c8.5,8.7,17.3,17,27,24.4c6.5,5,13.1,9.6,20.6,12.9c3.4,1.5,6.8,2.8,10.6,2.5c3.2,0.3,5.2-1.4,5.5-4.6c0.7-2.2,0-4.3-0.5-6.3
				c-1.4-5.3-4-10-6.9-14.7c-6.2-9.9-13.6-18.7-21.5-27.1c-5.9-6.2-12-12.2-18.3-18c-7.8-7.2-15.8-14.2-24-20.9
				c-21-17.2-43.2-32.8-66-47.6c-0.4-0.3-0.8-0.4-1.3-0.6c-0.6-0.2-1.1-0.5-1.7-0.7c-0.1,0.2-0.3,0.3-0.4,0.5
				C372.2,460.1,372.5,460.6,372.8,461.2z"/>
			<path class="st1" d="M226.1,455.2c-0.8,0.9-1.8,1.8-2.5,2.8c-14.9,23.2-30.5,45.7-47.8,67.2c-14.5,18.1-29.9,35.5-47.3,50.9
				c-8.3,7.4-17,14.3-26.8,19.7c-3.8,2.1-7.7,3.9-12,4.7c-1.6,0.3-3.4,0.4-5,0.2c-3.1-0.3-5.2-2.7-5.5-6c-0.2-2.8,0.3-5.4,1.2-8
				c2.4-6.9,6.2-13,10.3-18.8c8.3-11.8,18.1-22.3,28.4-32.4c19-18.6,39.8-35.2,61.3-50.8c13.3-9.6,26.8-18.8,40.7-27.6
				c1.9-1.2,3.4-2.5,4.5-4.5c0.6-1.1,1.3-2,2-3c0.2,0.3,0.3,0.6,0.5,0.9c-0.6,1-1.1,1.9-1.7,2.9
				C225.6,453.9,225.7,454.5,226.1,455.2z M80.4,595.4c1,3.4,2.6,4.5,6,4.1c1.7-0.2,3.5-0.3,5.2-0.7c5.2-1.3,9.8-3.9,14.2-6.7
				c10-6.2,19-13.8,27.5-21.9c6.2-5.9,12.2-12,18-18.3c7.2-7.9,14.3-15.9,21-24.2c16.5-20.2,31.5-41.4,45.7-63.3
				c1.3-2,2.6-4.1,3.9-6.1c-0.1-0.1-0.3-0.3-0.4-0.4c-1.6,1-3.2,1.9-4.7,2.9c-23.4,15.2-46.2,31.3-67.6,49.1
				c-8.2,6.8-16.2,13.8-23.9,21c-6.1,5.6-11.8,11.7-17.5,17.7c-7.1,7.4-13.5,15.4-19,24c-2.9,4.5-5.6,9.1-7.2,14.3
				C80.5,589.7,79.7,592.5,80.4,595.4z"/>
			<path class="st1" d="M367.7,311.3c0.6-0.8,1.2-1.5,1.7-2.3c16.7-26.1,34.6-51.5,54.4-75.4c13.5-16.2,27.7-31.7,43.7-45.4
				c7-6,14.4-11.7,22.5-16.3c4.1-2.3,8.3-4.4,13-5.3c1.6-0.3,3.2-0.4,4.8-0.3c3.2,0.2,5.6,2.6,5.8,5.9c0.1,2.2-0.2,4.5-0.7,6.6
				c-1.1,4.3-3.1,8.2-5.3,12c-5.3,9.1-11.8,17.3-18.8,25.1c-14.6,16.3-30.8,30.9-47.8,44.7c-22.3,18.1-45.8,34.5-70,50
				c-1,0.7-1.9,1.7-2.8,2.5C368,312.6,367.9,312,367.7,311.3z M512.6,172.6c0.3-2.7-1.2-4.1-3.5-4.9c-2.6-0.6-5-0.2-7.5,0.5
				c-5.8,1.6-10.9,4.5-15.9,7.7c-11.3,7.3-21.3,16.2-31,25.6c-7.9,7.7-15.4,15.8-22.6,24.1c-13.5,15.5-26.1,31.7-37.8,48.5
				c-7.5,10.7-14.7,21.7-22,32.5c-0.5,0.7-0.8,1.4-1.3,2.1c0.8,0.1,1.2-0.1,1.5-0.3c16.2-10.3,32-21.1,47.4-32.6
				c17.7-13.2,34.9-27.2,50.8-42.6c10.1-9.7,19.7-19.9,28.1-31c4.8-6.3,9.2-12.9,12.1-20.3C512,178.9,513,175.9,512.6,172.6z"/>
			<path class="st1" d="M221.5,310.3c-9.3-6.2-18.7-12.2-27.9-18.6c-23.3-16-45.6-33.2-66.4-52.4c-12.3-11.4-24-23.3-34-36.7
				c-4.1-5.4-7.9-11-10.7-17.3c-1.2-2.8-2.1-5.7-3-8.6c-0.4-1.4-0.4-3-0.2-4.5c0.3-3.4,2.7-5.6,6.2-5.9c2.7-0.2,5.2,0.3,7.8,1.2
				c5.2,1.7,9.9,4.4,14.5,7.3c10.9,7.1,20.7,15.6,30,24.6c18,17.4,34.1,36.6,49.2,56.6c12.5,16.6,24.3,33.7,35.5,51.2
				c0.4,0.6,0.7,1.3,1,1.9C222.8,309.6,222.1,309.9,221.5,310.3z M89.7,167.9c-0.3-0.1-0.6-0.3-0.9-0.3c-4.8-0.7-9.2,0.2-8.6,6.9
				c0,0.4,0,0.8,0.1,1.2c0.8,5.2,3,9.7,5.6,14.2c6.6,11.4,15,21.4,24,31c5.7,6,11.5,11.8,17.6,17.3c7.9,7.2,15.9,14.3,24.2,21.1
				c18.2,14.9,37.4,28.7,57,41.6c2.5,1.7,5.1,3.3,7.7,4.9c3.2,2.4,3.7,2.7,5.4,2.7c-1-1.4-1.8-2.7-2.7-4c-0.5-0.9-1-1.8-1.5-2.7
				c-6.7-9.8-13.3-19.7-20.1-29.5c-14.8-20.9-30.6-40.9-48.1-59.6c-9.3-10-19.2-19.5-29.9-28c-6.6-5.2-13.4-10.2-20.9-13.8
				C95.7,169.5,92.9,168.1,89.7,167.9z"/>
			<path class="st2" d="M367.7,311.3c0.1,0.6,0.3,1.2,0.4,1.8c-2,3.2-3.9,6.4-5.9,9.6c-9.7,15.5-18.7,31.3-27.5,47.3
				c-0.3,0.6-0.4,1.4-0.6,2.2c-0.3-0.5-0.7-0.9-1-1.4c0.3-0.6,0.5-1.2,0.8-1.7c10.1-18.3,20.7-36.4,31.8-54.1
				c0.2-0.3,0.3-0.7,0.5-1.4c-0.6,0.3-0.9,0.4-1.2,0.6c-12.5,7.5-24.9,15-37.4,22.4c-4,2.4-8.2,4.5-12.4,6.8c0-0.3,0-0.7,0-1
				c3.1-1.8,6.2-3.5,9.3-5.4c13.8-8.2,27.5-16.5,41.3-24.7C366.5,312,367.1,311.7,367.7,311.3z"/>
			<path class="st3" d="M226.1,455.2c-0.4-0.7-0.5-1.3,0.2-1.9c1.3-0.7,2.6-1.4,3.9-2.1c0.6-0.3,1.3-0.7,1.9-1
				c8.4-5.1,16.8-10.2,25.3-15.1c8.9-5.2,17.9-10.2,26.8-15.3c0.3,0.5,0.6,1,1,1.5c-1.1-0.5-1.8,0.4-2.6,0.8
				c-13.3,7.6-26.6,15.2-39.8,22.9C237.1,448.3,231.6,451.8,226.1,455.2z"/>
			<path class="st3" d="M364.8,452.9c-0.3,0.1-0.6,0.3-0.9,0.4c-2.5-1.5-5-3-7.5-4.6c-15.1-9.4-30.6-18.4-46.2-26.9
				c-0.7-0.4-1.4-1.2-2.4-0.6c0.3-0.5,0.6-1,0.9-1.5c0.1,0,0.3,0.1,0.4,0.1c0.7,0.4,1.3,0.9,2,1.3c13.5,7.8,27.1,15.6,40.6,23.5
				C356.1,447.3,360.4,450.2,364.8,452.9z"/>
			<path class="st2" d="M368.1,453.9c-1,1.1-1.7,0.3-2.4-0.4c1.1-1-0.1-1.6-0.5-2.1c-7.5-12.6-15-25.1-22.5-37.7
				c-2.1-3.5-3.9-7.1-5.9-10.7c0.2-0.2,0.4-0.4,0.7-0.6c1.8,3.2,3.6,6.3,5.5,9.5c8,13.3,15.9,26.6,23.9,40
				C367.3,452.5,367.7,453.2,368.1,453.9z"/>
			<path class="st4" d="M259.8,371.2c-0.4,0.4-0.7,0.7-1.1,1.1c-0.2-0.7-0.2-1.5-0.6-2.2c-8.6-15.7-17.5-31.3-27-46.5
				c-1.1-1.7-2-3.4-3.1-5.1c0.1-0.3,0.3-0.6,0.4-0.9c0.3,0.4,0.7,0.9,1,1.3c8.9,15.1,17.8,30.2,26.7,45.3
				C257.5,366.5,258.6,368.9,259.8,371.2z"/>
			<path class="st5" d="M228,450.5c-0.2-0.3-0.3-0.6-0.5-0.9c2.3-3.9,4.7-7.7,7-11.7c6.1-10.5,12.2-20.9,18.4-31.4
				c0.4-0.7,0.9-1.5,1.4-2.2c0.2,0.2,0.4,0.4,0.6,0.6c-0.2,0.5-0.4,1-0.7,1.5c-5.7,9.7-11.3,19.5-17,29.2
				C234.3,440.6,231.1,445.5,228,450.5z"/>
			<path class="st2" d="M284.3,346.2c-0.2,0.2-0.4,0.4-0.5,0.6c-0.4-0.2-0.9-0.3-1.3-0.6c-10.8-6.2-21.6-12.3-32.4-18.5
				c-3.4-2-6.8-4.2-10.2-6.3c0.2-0.2,0.4-0.4,0.6-0.5c4,2.4,8.1,4.8,12.1,7.2c9.8,5.6,19.7,11.2,29.5,16.8
				C282.9,345.3,283.6,345.8,284.3,346.2z"/>
			<path class="st5" d="M307.3,419.2c0.2,0.7,0.3,1.4,0.5,2c-3,6.1-5.9,12.3-8.9,18.4c-0.6,1.3-1.4,2.4-2.1,3.6
				c-0.1-0.5-0.3-1-0.4-1.5c0.4-0.6,0.9-1.2,1.3-1.9c1.1-2.1,2.1-4.3,3.1-6.4c1.9-3.9,3.8-7.7,5.6-11.6c0.3-0.6,1.1-1.4,0-2
				c-1.4-0.8-2.7-1.6-4.1-2.4c-0.6-0.3-1.4-0.5-1.3-1.5C303,417,305.1,418.1,307.3,419.2z"/>
			<path class="st5" d="M240.5,320.9c-0.2,0.2-0.4,0.4-0.6,0.5c-4.4-2.6-8.7-5.1-13.1-7.7c-0.1,0.1-0.1,0.2-0.2,0.3
				c0.6,1.2,1.2,2.4,1.8,3.5c-0.1,0.3-0.3,0.6-0.4,0.9c-0.8-1.3-1.7-2.5-2.4-3.8c-1-1.8-2.2-3.4-4.1-4.4c0.6-0.4,1.2-0.7,1.8-1.1
				c0,0,0,0.1,0,0.1c0.2,0.2,0.4,0.4,0.6,0.6c0.9,0.8,1.7,1.6,2.7,2.3C231.2,315.1,235.9,318,240.5,320.9z"/>
			<path class="st5" d="M296.2,443.8c0.2,0,0.3,0,0.5,0c0,0.1-0.1,0.3-0.1,0.4C296.4,444,296.3,443.9,296.2,443.8z"/>
			<path class="st6" d="M350.3,380.1C350.3,380.1,350.3,380.1,350.3,380.1C350.3,380.1,350.3,380.1,350.3,380.1z"/>
			<path class="st6" d="M351.3,380.5C351.3,380.5,351.3,380.5,351.3,380.5C351.3,380.5,351.3,380.5,351.3,380.5z"/>
			<path class="st1" d="M223.9,309.8c-0.2-0.2-0.4-0.4-0.6-0.6C223.5,309.4,223.7,309.6,223.9,309.8z"/>
			<path class="st5" d="M295.9,443.3c0.1,0.2,0.2,0.3,0.3,0.5C296.1,443.6,296,443.4,295.9,443.3z"/>
			<path class="st7" d="M336.9,403c2,3.6,3.8,7.2,5.9,10.7c7.5,12.6,15,25.1,22.5,37.7c0.3,0.6,1.5,1.2,0.5,2.1
				c-0.3-0.2-0.6-0.4-0.9-0.6c-4.4-2.8-8.7-5.6-13.2-8.3c-13.5-7.9-27.1-15.7-40.6-23.5c-0.7-0.4-1.3-0.9-2-1.3
				c0.8-0.9,1.6-1.8,2.4-2.7c2.5-2.7,4.9-5.4,7.4-8.1c4,3.7,8,7.3,12,11c5.3,4.9,10.6,9.9,15.9,14.9c4.2,4,8.4,8,12.7,12.1
				c0.4,0.3,0.8,0.6,1.2,0.8c0.1-0.1,0.3-0.3,0.4-0.4c-0.5-0.5-1-1.1-1.5-1.6c-4-4.1-8-8.3-12-12.4c-6.3-6.5-12.6-12.9-18.9-19.4
				c-2.5-2.6-5-5.2-7.5-7.7c0.5-0.2,1.1-0.4,1.4-0.7c2.5-2.5,5-4.9,7.4-7.5c0.4-0.4,0.5-1,0.7-1.4c0,0,0,0,0,0
				c0.3-0.2,0.6-0.3,0.9-0.5c0.8-0.8,1.2-0.2,1.6,0.5C334.4,398.8,335.7,400.9,336.9,403z"/>
			<path class="st7" d="M315.3,343.5c4.1-2.3,8.3-4.4,12.4-6.8c12.5-7.4,24.9-14.9,37.4-22.4c0.3-0.2,0.6-0.3,1.2-0.6
				c-0.2,0.6-0.3,1.1-0.5,1.4c-11.1,17.7-21.7,35.8-31.8,54.1c-0.3,0.6-0.5,1.2-0.8,1.7c-1,1-1.7,0.1-2.5-0.3
				c-0.5-0.6-0.9-1.3-1.4-1.9c-1.5-1.5-3-3-4.5-4.6c-0.5-0.5-0.8-1.3-1.2-1.9c1.9-2.3,3.7-4.6,5.6-6.8c3.3-3.7,6.6-7.3,9.9-10.9
				c1.6-1.8,3.2-3.5,4.8-5.3c3.4-3.8,6.7-7.6,10.1-11.4c2-2.2,4-4.3,6-6.5c0.3-0.3,0.4-0.8,0.6-1.3c0.2-0.2,0.3-0.3,0.5-0.5
				c0.2-0.2,0.3-0.3,0.5-0.5c0.1-0.2,0.1-0.4,0.2-0.6c-0.1,0.2-0.1,0.4-0.2,0.6c-0.2,0.2-0.3,0.3-0.5,0.5c-0.2,0.2-0.3,0.3-0.5,0.5
				c-0.4,0.1-0.8,0.2-1.1,0.4c-0.4,0.3-0.8,0.8-1.2,1.2c-12.2,12-24.3,24-36.5,36c-0.5,0.5-1.3,0.9-1.9,1.3c-0.6-0.5-1.3-1-1.8-1.5
				c-2.2-2.1-4.3-4.3-6.4-6.4c-0.5-0.4-1.1-0.7-1.7-1c0,0,0.1-0.1,0.1-0.1c-0.1-0.2-0.3-0.4-0.4-0.6c-0.3-0.6-0.7-1.2-1-1.8
				C310.9,346,313.1,344.8,315.3,343.5z"/>
			<path class="st7" d="M228.5,317.6c-0.6-1.2-1.2-2.4-1.8-3.5c0.1-0.1,0.1-0.2,0.2-0.3c4.4,2.6,8.7,5.1,13.1,7.7
				c3.4,2.1,6.7,4.3,10.2,6.3c10.8,6.2,21.6,12.4,32.4,18.5c0.4,0.2,0.9,0.4,1.3,0.6c1,1,0,1.7-0.4,2.4c-0.3,0.1-0.6,0.2-0.8,0.5
				c-2.4,2.4-4.8,4.8-7.2,7.2c-0.4,0.4-0.5,0.9-0.7,1.4c-2.9-2.6-5.7-5.3-8.6-7.9c-5-4.7-10-9.3-15-14c-3.8-3.5-7.5-7.2-11.2-10.7
				c-2-1.9-4-3.7-6-5.5c-0.4-0.3-0.9-0.5-1.4-0.8c0-0.1,0-0.1-0.1-0.2c0,0-0.1,0-0.1,0c0.1,0.1,0.1,0.1,0.2,0.2
				c0.2,0.4,0.3,0.9,0.6,1.3c2,2.2,4,4.4,6,6.5c2.7,2.9,5.4,5.7,8,8.5c1.8,2,3.7,4,5.5,6c4.5,5,9.1,10,13.6,15
				c1.4,1.6,2.8,3.2,4.2,4.9c-2.1,2.2-4.2,4.3-6.3,6.6c-0.6,0.6-0.9,1.4-1.4,2.1c-0.8,0.7-1.7,1.1-2.8,0.8c-1.2-2.3-2.3-4.7-3.6-7
				c-8.9-15.1-17.8-30.2-26.7-45.3C229.2,318.4,228.8,318,228.5,317.6z"/>
			<path class="st7" d="M228,450.5c3.1-5,6.2-9.8,9.2-14.9c5.7-9.7,11.4-19.5,17-29.2c0.3-0.5,0.5-1,0.7-1.5
				c1.6-2.7,3.1-5.4,4.7-8.2c0.4-0.6,0.7-1.3,1.6-0.5c0.6,0.7,1.2,1.5,1.8,2.2c2.6,2.7,5.2,5.4,7.7,8c-0.3,0.5-0.6,1.1-1,1.6
				c-2.4,2.6-4.8,5.1-7.2,7.7c-6.4,6.7-12.9,13.5-19.3,20.2c-3.2,3.4-6.4,6.9-9.6,10.3l0,0c-0.2,0.3-0.3,0.7-0.5,1l0,0
				c-0.2,0.2-0.3,0.3-0.5,0.5c0,0,0,0,0,0c-0.2,0.2-0.3,0.3-0.5,0.5l0,0c-0.2,0.2-0.3,0.3-0.5,0.5l0,0c-0.2,0.2-0.3,0.3-0.5,0.5
				c0,0,0,0,0,0c-0.2,0.2-0.3,0.3-0.5,0.5l0,0c-0.2,0.2-0.3,0.3-0.5,0.5c0,0,0,0,0,0c-0.2,0.2-0.3,0.3-0.5,0.5c0,0,0,0,0,0
				c-0.2,0.1-0.4,0.2-0.6,0.2c0.2,0.1,0.4,0.2,0.6,0.2c0.1,0.1,0.2,0.2,0.3,0.3c-1.3,0.7-2.6,1.4-3.9,2.1
				C226.9,452.4,227.4,451.4,228,450.5z"/>
			<path class="st8" d="M276.3,365.5c0.3-0.6,0.3-1.5,1.3-1.5c7.6,0.2,15.2,0.4,22.9,0.6c0.2,0,0.3,0,0.5,0c0.1,0.5,0.2,1.1,0.3,1.6
				c2.3,5.7,4.6,11.4,6.8,17.1c-0.2,0.1-0.3,0.3-0.5,0.4c-7.7,0-15.4,0-23.1,0.1c-0.2,0-0.3-0.1-0.5-0.1c0-0.3,0-0.7-0.1-0.9
				c-2.1-5.3-4.2-10.6-6.3-15.9C277.6,366.2,276.8,365.9,276.3,365.5z"/>
			<path class="st9" d="M284.7,383.8c7.7,0,15.4,0,23.1-0.1c0,0,0.2,0,0.2,0l0.2,0c0.2,0,0.3,0.1,0.5,0.1c0.5,1.5,0.9,3,1.4,4.5
				c1.9,4.8,3.9,9.6,5.8,14.3c0,0.1-0.1,0.2-0.1,0.3c-7.8,0-15.7,0.1-23.5,0.1c-0.2,0-0.3-0.1-0.5-0.1c-0.7-1.8-1.3-3.6-2-5.4
				C288.2,393,286.4,388.4,284.7,383.8z"/>
			<path class="st7" d="M284.2,419.8c-8.9,5.1-17.9,10.1-26.8,15.3c-8.5,5-16.8,10.1-25.3,15.1c-0.6,0.4-1.3,0.7-1.9,1
				c-0.1-0.1-0.2-0.2-0.3-0.3c0-0.2,0-0.3,0-0.5c0,0,0,0,0,0c0.2-0.2,0.3-0.3,0.5-0.5c0,0,0,0,0,0c0.2-0.2,0.3-0.3,0.5-0.5
				c0,0,0,0,0,0c0.2-0.2,0.3-0.3,0.5-0.5c0,0,0,0,0,0c0.2-0.2,0.3-0.3,0.5-0.5c0,0,0,0,0,0c0.2-0.2,0.3-0.3,0.5-0.5c0,0,0,0,0,0
				c0.2-0.2,0.3-0.3,0.5-0.5c0,0,0,0,0,0c0.2-0.2,0.3-0.3,0.5-0.5c0,0,0,0,0,0c0.2-0.3,0.3-0.7,0.5-1c0,0,0,0,0,0
				c1.1,0.2,1.7-0.6,2.4-1.2c2.5-2.4,5.1-4.8,7.7-7.2c5.7-5.3,11.4-10.7,17-16.1c4.2-4,8.4-8,12.6-12.1c0.2-0.2,0.4-0.3,0.6-0.4
				c2.6,2.7,5.3,5.4,7.9,8.1c0.3,0.3,0.8,0.3,1.3,0.5c0,0,0,0,0,0c0.2,0.3,0.3,0.6,0.5,1C283.9,419.1,284,419.4,284.2,419.8z"/>
			<path class="st10" d="M308.7,383.8c-0.2,0-0.3-0.1-0.5-0.1c0-0.1,0-0.3,0-0.4c-2.3-5.7-4.6-11.4-6.8-17.1
				c-0.2-0.5-0.2-1.1-0.3-1.6c5,0,10,0,15,0c3.3,6.2,6.6,12.3,9.8,18.5c0.1,0.2,0,0.5,0,0.7C320.1,383.7,314.4,383.8,308.7,383.8z"
				/>
			<path class="st11" d="M284.7,383.8c1.7,4.6,3.5,9.2,5.2,13.8c0.7,1.8,1.3,3.6,2,5.4c-3.8,0-7.5,0-11.3,0.1
				c-0.7,0-1.5,0.3-2.2,0.5c-0.6-0.3-1.4-0.5-1.7-1c-3.3-6.2-6.5-12.5-9.7-18.8c5.7,0,11.5,0,17.2-0.1
				C284.4,383.7,284.5,383.7,284.7,383.8z"/>
			<path class="st6" d="M306.3,419.8c1.1,0.7,0.3,1.4,0,2c-1.9,3.9-3.8,7.7-5.6,11.6c-1,2.1-2.1,4.3-3.1,6.4
				c-0.3,0.7-0.9,1.3-1.3,1.9c-3.2-6.5-6.4-13-9.5-19.5c-0.3-0.7-1.4-1.5-0.2-2.4C293.1,419.8,299.7,419.8,306.3,419.8z"/>
			<path class="st6" d="M260.2,393.5c-0.2,0.8-0.7,0.6-1.3,0.4c-2-1-4-2-6-3c-4.3-2.1-8.6-4.2-12.9-6.3c-0.6-0.3-1.1-0.6-1.8-1
				c0.8-0.4,1.4-0.8,2-1.1c5.9-2.9,11.8-5.8,17.7-8.6c0.7-0.3,1.5-0.4,2.3-0.6c0.1,0.1,0.1,0.3,0.1,0.4
				C260.2,380.3,260.2,386.9,260.2,393.5z"/>
			<path class="st6" d="M286,346.7c0.2-0.6,0.4-1.2,0.7-1.8c2.9-5.9,5.7-11.8,8.6-17.6c0.3-0.6,0.7-1.3,1.1-2.1
				c1.3,2.7,2.6,5.2,3.8,7.7c2.1,4.3,4.2,8.6,6.3,12.9c0.2,0.4,1,1.1-0.1,1.5C299.7,347.1,292.9,346.9,286,346.7z"/>
			<path class="st6" d="M334.1,373.3c5.1,2.5,10.1,5,15.2,7.6c1.7,0.8,3.4,1.7,5.6,2.7c-7.2,3.6-14,6.9-20.8,10.3c-0.5,0-1,0-1.4,0
				c0,0,0,0,0,0c0-0.1,0-0.3,0-0.4c0.2-1.4,0.5-2.8,0.5-4.2c0.1-5.3,0.1-10.7,0.1-16C333.5,373.3,333.8,373.3,334.1,373.3z"/>
			<path class="st12" d="M270.3,361.7c-1.4-1.6-2.8-3.3-4.2-4.9c-4.5-5-9.1-10-13.6-15c-1.8-2-3.6-4-5.5-6c-2.7-2.9-5.4-5.7-8-8.5
				c-2-2.2-4-4.3-6-6.5c-0.3-0.3-0.4-0.8-0.6-1.3l0,0c0.5,0.2,1,0.4,1.4,0.8c2,1.8,4,3.6,6,5.5c3.8,3.6,7.5,7.2,11.2,10.7
				c5,4.7,10,9.4,15,14c2.9,2.7,5.7,5.3,8.6,7.9c0.8,1.1,1.7,2,3.1,2.4c-0.7,2.3-2.2,3.7-4.5,4.3
				C272.7,363.4,271.5,362.6,270.3,361.7z"/>
			<path class="st13" d="M284.2,383.7c-5.7,0-11.5,0-17.2,0.1c0-0.3,0-0.7,0.1-0.9c3-5.8,6.1-11.6,9.2-17.3c0.5,0.4,1.3,0.8,1.5,1.3
				c2.2,5.3,4.2,10.6,6.3,15.9C284.2,383,284.2,383.4,284.2,383.7z"/>
			<path class="st14" d="M308.7,383.8c5.7,0,11.5,0,17.2-0.1c-1.1,2.3-2.2,4.5-3.4,6.8c-2.1,4.1-4.3,8.1-6.5,12.1
				c-2-4.8-3.9-9.5-5.8-14.3C309.5,386.8,309.2,385.3,308.7,383.8z"/>
			<path class="st12" d="M319.8,358.8c0.6-0.4,1.4-0.8,1.9-1.3c12.2-12,24.3-24,36.5-36c0.4-0.4,0.8-0.8,1.2-1.2
				c0.3-0.2,0.7-0.3,1.1-0.4c0,0,0,0,0,0c-0.2,0.4-0.3,0.9-0.6,1.3c-2,2.2-4,4.3-6,6.5c-3.4,3.8-6.7,7.6-10.1,11.4
				c-1.6,1.8-3.2,3.5-4.8,5.3c-3.3,3.6-6.7,7.3-9.9,10.9c-1.9,2.2-3.8,4.5-5.6,6.8c-1.1,1-2.2,2-3.4,3c-1.4-0.7-3.1-0.9-3.8-2.5
				C317.7,361.6,319.2,360.6,319.8,358.8z"/>
			<path class="st12" d="M274.1,409.2c-0.2,0.1-0.4,0.2-0.6,0.4c-4.2,4-8.4,8.1-12.6,12.1c-5.7,5.4-11.3,10.7-17,16.1
				c-2.5,2.4-5.1,4.8-7.7,7.2c-0.7,0.7-1.3,1.4-2.4,1.2c3.2-3.4,6.4-6.9,9.6-10.3c6.4-6.8,12.8-13.5,19.3-20.2
				c2.4-2.5,4.8-5.1,7.2-7.7c0.4-0.4,0.7-1,1-1.6c1.7-0.6,2.7-2.1,3.8-3.5c1.9,0.3,2.5,1.8,2.9,3.4
				C275.9,406.7,275.1,408.1,274.1,409.2z"/>
			<path class="st15" d="M321.2,406.3c2.5,2.6,5,5.2,7.5,7.7c6.3,6.5,12.6,12.9,18.9,19.4c4,4.1,8,8.3,12,12.4
				c0.5,0.5,1,1.1,1.5,1.6c-0.1,0.1-0.3,0.3-0.4,0.4c-0.4-0.3-0.9-0.5-1.2-0.8c-4.2-4-8.4-8.1-12.7-12.1c-5.3-5-10.6-10-15.9-14.9
				c-4-3.7-8-7.3-12-11c-1.1-1.1-2.2-2.2-3.3-3.3c0.5-1.3,1-2.6,2.7-2.8C319.2,404.1,320.2,405.2,321.2,406.3z"/>
			<path class="st16" d="M292.3,403c7.8,0,15.7-0.1,23.5-0.1c-2,1.1-4.1,2.2-6.1,3.4c-0.6,0.4-1.6,0.4-1.6,1.5c0,0,0,0,0,0
				c-0.3,0.2-0.6,0.3-1,0.5l0,0c-0.5,0.1-1,0-1.4,0.2c-2.2,1.1-4.4,2.2-6.5,3.3c-0.3,0.2-0.5,0.5-0.8,0.8l0.1,0c-1-0.3-2,1.1-3,0.1
				c-0.3-1-0.6-2-0.9-2.9C294,407.5,293.2,405.3,292.3,403z"/>
			<path class="st17" d="M300.5,364.6c-7.6-0.2-15.2-0.4-22.9-0.6c0.6-0.5,1.2-0.9,1.8-1.4c5.3-2.8,10.6-5.6,15.9-8.4
				c0.5-0.1,0.9-0.1,1.4-0.2c0.2,0.1,0.4,0.2,0.6,0.4c0,0,0,0,0,0c0.3,1.1,0.5,2.3,0.9,3.4C298.9,360.1,299.7,362.3,300.5,364.6z"/>
			<path class="st18" d="M307.3,419.2c-2.1-1.1-4.2-2.2-6.3-3.2c-0.1,0-0.2,0-0.3,0c-0.9-0.7-1.8-1.4-2.7-2.2
				c0.2-0.3,0.5-0.7,0.7-1.2c0,0-0.1,0-0.1,0c3.2-0.8,5.9-2.5,8.6-4.3c0,0,0,0,0,0c0.3-0.2,0.6-0.3,1-0.5c0,0,0,0,0,0
				c2.1-0.9,4.2-1.9,6.6-3c-0.4,0.9-0.6,1.4-0.9,1.9c-1.8,3.6-3.6,7.3-5.5,10.9C308.2,418.2,307.7,418.6,307.3,419.2z"/>
			<path class="st18" d="M332.4,394.1c-0.5,0.4-0.9,0.9-1.4,1.2c-4.3,2.2-8.6,4.4-13.3,6.7c0.2-0.6,0.2-1,0.4-1.3
				c2.5-4.9,5.1-9.7,7.7-14.6c0.2-0.5,0.7-0.8,1.1-1.2c1.4,2.7,2.8,5.4,4.3,8.1c0.3,0.6,0.6,1.4,1.5,0.8c0,0,0,0,0,0
				C332.6,393.9,332.5,394,332.4,394.1z"/>
			<path class="st18" d="M301,356c-0.2-0.3-0.4-0.8-0.7-1c-0.8-0.5-1.6-0.9-2.8-1.6c3.4-1.9,6.6-3.6,10-5.5
				c2.5,4.8,4.8,9.5,7.3,14.2c-0.7,0-1.3,0-1.9,0c0,0,0,0,0,0c0-0.7-0.4-0.9-1-0.5l0,0c0-0.7-0.4-0.9-1-0.5l0,0c0-0.7-0.4-0.9-1-0.5
				l0,0c0-0.1,0.1-0.2,0.1-0.2c-2.7-1.4-5.4-2.8-8.1-4.3c0,0-0.1,0.1-0.2,0.1l0,0C301.9,355.7,301.6,355.5,301,356L301,356z"/>
			<path class="st18" d="M278.6,404.9c5.5,2.9,11,5.8,16.8,8.9c-3.5,1.9-6.7,3.7-10.1,5.5c-2.4-4.7-4.8-9.4-7.1-14
				C278.3,405.1,278.5,405,278.6,404.9z"/>
			<path class="st18" d="M260.8,394.8c1.9-3.4,3.5-6.6,5.4-10.1c3.2,5.7,6.1,11.3,8.6,17.2C270.2,399.6,265.7,397.2,260.8,394.8z"/>
			<path class="st18" d="M279.4,362c-0.2,0-0.5,0.1-0.7,0.1c0.1-1.6,4.7-11,6.8-14.1c3.2,1.8,6.4,3.6,9.7,5.4
				c-0.7,0.4-1.3,0.8-2,1.2C288.5,357.1,284,359.5,279.4,362z"/>
			<path class="st18" d="M261.1,373.2c0.2-0.4,0.4-1.1,0.7-1.3c4.2-2.2,8.4-4.2,12.6-6.3c0.1-0.1,0.3,0,0.8,0.1
				c-2.9,5.6-5.8,11.1-8.8,16.8c-0.4-0.5-0.6-0.7-0.8-0.9C264.1,378.7,262.6,376,261.1,373.2z"/>
			<path class="st18" d="M326.9,382.2c-0.3-0.2-0.7-0.4-0.8-0.7c-2.8-5.2-5.5-10.4-8.4-15.9c2.1,0.2,3.4,1.4,5,2.1
				c1.5,0.7,3,1.5,4.5,2.3c1.6,0.8,3.1,1.6,4.7,2.4c-0.3,0.7-0.5,1.5-0.8,2.2C329.6,377,328.2,379.6,326.9,382.2z"/>
			<path class="st19" d="M300.5,364.6c-0.8-2.2-1.6-4.5-2.4-6.7c-0.4-1.1-0.6-2.3-0.9-3.4c1.3,0.5,2.5,1,3.8,1.5c0,0,0,0,0,0
				c0.3,0.2,0.6,0.3,1,0.5c0,0,0,0,0,0c2.7,1.4,5.4,2.9,8.2,4.3c0,0,0,0,0,0c0.3,0.2,0.6,0.3,1,0.5c0,0,0,0,0,0
				c0.3,0.2,0.6,0.3,1,0.5c0,0,0,0,0,0c0.3,0.2,0.6,0.3,1,0.5c0,0,0,0,0,0c1,0.8,2,1.6,3,2.3c-5,0-10,0-15,0
				C300.8,364.6,300.7,364.6,300.5,364.6z"/>
			<path class="st20" d="M292.3,403c0.8,2.2,1.6,4.5,2.4,6.7c0.3,1,0.6,2,0.9,2.9c-3-1.5-6-3-8.9-4.5c-2.2-1.1-4.4-2.2-6.6-3.4
				c-0.6-0.3-1.2-0.8-1.7-1.2c0.7-0.2,1.5-0.5,2.2-0.5c3.8-0.1,7.5-0.1,11.3-0.1C292,403,292.2,403,292.3,403z"/>
			<path class="st21" d="M286,346.7c6.8,0.2,13.6,0.4,20.5,0.6c-3,1.7-6,3.3-8.9,5c-0.8,0.4-1.5,0.4-2.3,0c-3.1-1.7-6.1-3.4-9.2-5.1
				C286,347.2,286.1,346.9,286,346.7z"/>
			<path class="st21" d="M260.2,393.5c0-6.6,0-13.3,0-19.9c0.5,0.8,1,1.6,1.4,2.4c1.3,2.3,2.6,4.5,3.8,6.8c0,0.5,0.1,1.2-0.2,1.6
				C263.7,387.5,261.9,390.5,260.2,393.5z"/>
			<path class="st21" d="M300.7,415.9c0.1,0,0.2,0,0.3,0c-0.1,0.9,0.7,1.1,1.3,1.5c1.4,0.8,2.7,1.6,4.1,2.4c-6.6,0-13.2,0-19.7,0
				c3-1.6,5.9-3.3,8.9-5c0.9-0.5,1.6-0.1,2.4,0.2C298.8,415.3,299.4,416.6,300.7,415.9z"/>
			<path class="st22" d="M321.2,406.3c-1-1.1-2-2.2-2.9-3.3c4.2-2.1,8.3-4.2,12.5-6.3c-0.2,0.5-0.3,1.1-0.7,1.4
				c-2.4,2.5-4.9,5-7.4,7.5C322.2,405.9,321.6,406.1,321.2,406.3z"/>
			<path class="st22" d="M274.5,402.9c-1,1.4-2,2.8-3.8,3.5c-2.6-2.7-5.2-5.4-7.7-8c-0.6-0.7-1.2-1.4-1.8-2.2
				C265.7,398.4,270.1,400.7,274.5,402.9z"/>
			<path class="st22" d="M319.8,358.8c-0.6,1.8-2.1,2.7-3.5,3.8c-2.2-4.2-4.3-8.5-6.5-12.7c0.6,0.3,1.3,0.6,1.7,1
				c2.2,2.1,4.3,4.3,6.4,6.4C318.6,357.9,319.2,358.3,319.8,358.8z"/>
			<path class="st22" d="M315.5,405.8c1.1,1.1,2.2,2.2,3.3,3.3c-2.5,2.7-4.9,5.4-7.4,8.1c-0.8,0.9-1.6,1.8-2.4,2.7
				c-0.1,0-0.3-0.1-0.4-0.1c0.9-1.9,1.7-3.9,2.7-5.8C312.7,411.3,314.1,408.6,315.5,405.8z"/>
			<path class="st22" d="M274.1,409.2c1-1.1,1.8-2.5,3.4-2.9c1.9,3.8,3.9,7.7,5.8,11.5c-0.4-0.2-1-0.2-1.3-0.5
				C279.4,414.6,276.7,411.9,274.1,409.2z"/>
			<path class="st23" d="M277.7,360.8c-1.4-0.3-2.3-1.3-3.1-2.4c0.2-0.5,0.4-1.1,0.7-1.4c2.4-2.4,4.8-4.8,7.2-7.2
				c0.2-0.2,0.5-0.3,0.8-0.5C281.4,353.1,279.6,356.9,277.7,360.8z"/>
			<path class="st23" d="M270.3,361.7c1.2,0.9,2.5,1.8,2.9,3.3c-3.5,1.8-7.1,3.6-10.6,5.3c0.5-0.7,0.8-1.5,1.4-2.1
				C266.1,366,268.2,363.8,270.3,361.7z"/>
			<path class="st24" d="M326.9,382.2c1.4-2.6,2.7-5.2,4.1-7.8c0.3-0.7,0.6-1.4,0.8-2.2c0.8,0.3,1.6,0.7,2.3,1c-0.3,0-0.6,0-0.9-0.1
				c-0.1,0.1-0.3,0.1-0.4,0.2c-1.7,3.1-3.5,6.2-5.1,9.4c-0.2,0.5-0.2,1.3,0.1,1.8c1.6,3,3.3,6,4.9,8.9c0,0.1,0,0.3,0,0.4
				c-1,0.7-1.2-0.2-1.5-0.8c-1.5-2.7-2.9-5.4-4.3-8.1C326.9,384,326.9,383.1,326.9,382.2z"/>
			<path class="st22" d="M320.2,365.2c1.1-1,2.2-2,3.4-3c0.4,0.6,0.7,1.4,1.2,1.9c1.5,1.6,3,3,4.5,4.6c0.5,0.6,0.9,1.2,1.4,1.9
				C327.2,368.7,323.7,366.9,320.2,365.2z"/>
			<path class="st25" d="M279.4,362c4.6-2.5,9.2-4.9,13.8-7.4c0.7-0.4,1.4-0.8,2-1.2c0,0.3,0.1,0.6,0.1,0.9
				c-5.3,2.8-10.6,5.6-15.9,8.4C279.4,362.4,279.4,362.2,279.4,362z"/>
			<path class="st24" d="M265.5,382.8c-1.3-2.3-2.5-4.5-3.8-6.8c-0.5-0.8-1-1.6-1.4-2.4c0-0.1,0-0.3-0.1-0.4c0.3,0,0.7,0,1,0
				c1.5,2.8,3,5.5,4.5,8.3C265.5,381.9,265.5,382.4,265.5,382.8z"/>
			<path class="st24" d="M332.4,394.1c0.1-0.1,0.1-0.2,0.2-0.2c0.5,0,1,0,1.4,0C333.6,393.9,333,394,332.4,394.1z"/>
			<path class="st22" d="M283.8,418.8c-0.2-0.3-0.3-0.6-0.5-1C283.4,418.1,283.6,418.4,283.8,418.8z"/>
			<path class="st22" d="M331.7,396.2c-0.3,0.2-0.6,0.3-0.9,0.5C331,396.5,331.3,396.4,331.7,396.2z"/>
			<path class="st22" d="M309.5,349.3c0.1,0.2,0.3,0.4,0.4,0.6C309.8,349.7,309.7,349.5,309.5,349.3z"/>
			<path class="st19" d="M297.2,354.5c-0.2-0.1-0.4-0.2-0.6-0.4C296.9,354.2,297,354.3,297.2,354.5z"/>
			<path class="st26" d="M373.9,459.7c0.4,0.2,0.9,0.4,1.3,0.6c22.8,14.8,45,30.4,66,47.6c8.2,6.7,16.2,13.7,24,20.9
				c6.3,5.8,12.4,11.8,18.3,18c8,8.4,15.4,17.3,21.5,27.1c2.9,4.6,5.5,9.4,6.9,14.7c0.6,2.1,1.2,4.2,0.5,6.3c-0.7-0.4-1.5-0.6-2-1.1
				c-5.7-5.5-11.4-11-17-16.5c-6.8-6.6-13.6-13.3-20.4-19.9c-7-6.9-14.1-13.7-21.1-20.6c-7.1-6.9-14.2-13.8-21.2-20.8
				c-9-8.8-17.9-17.6-26.9-26.3c-8.7-8.5-17.3-17-26-25.5c-0.5-0.5-1.3-0.8-1.9-1.3l0,0c-0.2-0.2-0.3-0.3-0.5-0.5l0,0
				c-0.2-0.2-0.3-0.3-0.5-0.5l0,0C374.6,461.3,374.3,460.5,373.9,459.7z"/>
			<path class="st26" d="M507,599.6c-3.8,0.4-7.2-1-10.6-2.5c-7.5-3.3-14.2-7.9-20.6-12.9c-9.6-7.4-18.5-15.7-27-24.4
				c-9.9-10.2-19.2-20.9-28.2-31.9c-16.1-19.8-30.8-40.5-44.8-61.8c-1-1.6-2-3.3-3-4.9c0.7,0.3,1.4,0.6,2.1,0.8c0,0,0,0,0,0
				c0.2,0.2,0.3,0.3,0.5,0.5c0,0,0,0,0,0c0.2,0.2,0.3,0.3,0.5,0.5l0,0c0.4,0.6,0.6,1.3,1.1,1.8c4.4,4.6,8.7,9.1,13.1,13.6
				c4.4,4.6,8.9,9.2,13.3,13.8c4.3,4.5,8.6,9,13,13.5c4.5,4.7,9,9.3,13.5,14c4.3,4.4,8.5,8.9,12.8,13.3c4.5,4.7,9.1,9.4,13.7,14.1
				c4.3,4.4,8.5,8.9,12.8,13.3c4.5,4.7,9,9.3,13.5,14c7.6,7.8,15.2,15.5,22.8,23.3c0.3,0.3,0.7,0.7,1,1
				C506.7,598.9,506.8,599.3,507,599.6z"/>
			<path class="st27" d="M507,599.6c-0.2-0.3-0.3-0.7-0.5-1c-0.3-0.4-0.7-0.7-1-1c-7.6-7.8-15.2-15.5-22.8-23.3
				c-4.5-4.6-9-9.3-13.5-14c-4.3-4.4-8.5-8.9-12.8-13.3c-4.5-4.7-9.1-9.4-13.7-14.1c-4.3-4.4-8.5-8.9-12.8-13.3
				c-4.5-4.7-9-9.3-13.5-14c-4.3-4.5-8.7-9-13-13.5c-4.4-4.6-8.9-9.2-13.3-13.8c-4.4-4.5-8.8-9.1-13.1-13.6
				c-0.5-0.5-0.7-1.2-1.1-1.8c0.7,0.4,1.4,0.7,1.9,1.3c8.7,8.5,17.4,17,26,25.5c9,8.8,17.9,17.6,26.9,26.3
				c7.1,6.9,14.2,13.8,21.2,20.8c7,6.9,14.1,13.7,21.1,20.6c6.8,6.6,13.6,13.3,20.4,19.9c5.7,5.5,11.3,11,17,16.5
				c0.5,0.5,1.3,0.8,2,1.1C512.1,598.2,510.1,599.9,507,599.6z"/>
			<path class="st27" d="M374.9,462c-0.7-0.3-1.4-0.6-2.1-0.8c-0.3-0.5-0.7-1.1-1-1.6c0.1-0.2,0.3-0.3,0.4-0.5
				c0.6,0.2,1.1,0.5,1.7,0.7C374.3,460.5,374.6,461.3,374.9,462z"/>
			<path class="st26" d="M80.4,595.4c-0.7-2.9,0.1-5.7,1-8.4c1.7-5.1,4.3-9.8,7.2-14.3c5.6-8.6,12-16.6,19-24
				c5.7-6,11.4-12.1,17.5-17.7c7.8-7.2,15.8-14.2,23.9-21c21.5-17.8,44.3-33.9,67.6-49.1c1.6-1,3.2-2,4.7-2.9
				c0.1,0.1,0.3,0.3,0.4,0.4c-1.3,2-2.6,4.1-3.9,6.1c-14.2,21.8-29.2,43.1-45.7,63.3c-6.8,8.3-13.8,16.3-21,24.2
				c-5.8,6.3-11.8,12.4-18,18.3c-8.5,8.1-17.5,15.6-27.5,21.9c-4.5,2.8-9.1,5.4-14.2,6.7c-1.7,0.4-3.4,0.5-5.2,0.7
				c0.9-1.2,1.6-2.5,2.7-3.6c4.1-4.4,8.3-8.6,12.4-13c4.2-4.3,8.3-8.6,12.5-12.9c4.3-4.5,8.7-9,13-13.5c4.2-4.3,8.3-8.6,12.5-12.9
				c4.2-4.3,8.3-8.6,12.5-12.9c4.2-4.3,8.3-8.6,12.5-12.9c5.8-6,11.7-12,17.5-18c6.1-6.2,12.1-12.5,18.2-18.7
				c0.1-0.1,0.3-0.2,0.3-0.3c0.2-0.4,0.4-0.7,0.8-1.5c-0.7,0.3-1.1,0.4-1.3,0.6c-1.8,1.7-3.7,3.3-5.5,5c-7.2,7-14.4,14.1-21.6,21.1
				c-7.5,7.3-15,14.6-22.5,22c-7.1,6.9-14.2,13.8-21.3,20.8c-7.5,7.3-15,14.6-22.4,22c-8.1,7.9-16.1,15.8-24.2,23.6
				C82,594.8,81.1,595,80.4,595.4z M209.3,470.6c0.2-0.2,0.3-0.3,0.5-0.5c0.2-0.2,0.3-0.3,0.5-0.5c0.2-0.2,0.3-0.3,0.5-0.5
				c0.2-0.2,0.3-0.3,0.5-0.5c0.2-0.2,0.3-0.3,0.5-0.5c0.2-0.2,0.3-0.3,0.5-0.5c0.2-0.2,0.3-0.3,0.5-0.5c0.2-0.2,0.3-0.3,0.5-0.5
				c0-0.1,0.1-0.1,0.1-0.2c0,0.1-0.1,0.1-0.1,0.2c-0.2,0.2-0.3,0.3-0.5,0.5c-0.2,0.2-0.3,0.3-0.5,0.5c-0.2,0.2-0.3,0.3-0.5,0.5
				c-0.2,0.2-0.3,0.3-0.5,0.5c-0.2,0.2-0.3,0.3-0.5,0.5c-0.2,0.2-0.3,0.3-0.5,0.5c-0.2,0.2-0.3,0.3-0.5,0.5
				C209.6,470.3,209.5,470.5,209.3,470.6c-0.1,0-0.1,0-0.2,0.1c0,0,0,0.1,0,0.1C209.2,470.8,209.2,470.7,209.3,470.6z"/>
			<path class="st27" d="M80.4,595.4c0.7-0.4,1.6-0.7,2.2-1.3c8.1-7.9,16.1-15.8,24.2-23.6c7.5-7.3,15-14.6,22.4-22
				c7.1-6.9,14.2-13.8,21.3-20.8c7.5-7.3,15-14.6,22.5-22c7.2-7,14.4-14.1,21.6-21.1c1.8-1.7,3.6-3.4,5.5-5c0.2-0.2,0.5-0.2,1.3-0.6
				c-0.4,0.8-0.6,1.2-0.8,1.5c-0.1,0.1-0.2,0.2-0.3,0.3c-6.1,6.2-12.1,12.5-18.2,18.7c-5.8,6-11.7,12-17.5,18
				c-4.2,4.3-8.3,8.6-12.5,12.9c-4.2,4.3-8.3,8.6-12.5,12.9c-4.2,4.3-8.3,8.6-12.5,12.9c-4.3,4.5-8.7,9-13,13.5
				c-4.2,4.3-8.3,8.6-12.5,12.9c-4.2,4.3-8.3,8.6-12.4,13c-1,1.1-1.8,2.4-2.7,3.6C83,599.9,81.4,598.8,80.4,595.4z"/>
			<path class="st26" d="M512.6,172.6c0.4,3.3-0.6,6.3-1.8,9.3c-2.9,7.4-7.3,14-12.1,20.3c-8.4,11.2-18,21.3-28.1,31
				c-16,15.4-33.1,29.3-50.8,42.6c-15.4,11.5-31.2,22.3-47.4,32.6c-0.4,0.2-0.8,0.4-1.5,0.3c0.4-0.7,0.8-1.4,1.3-2.1
				c7.3-10.9,14.5-21.8,22-32.5c11.8-16.8,24.4-33,37.8-48.5c7.2-8.3,14.7-16.4,22.6-24.1c9.6-9.3,19.7-18.3,31-25.6
				c5-3.2,10.1-6.1,15.9-7.7c2.5-0.7,5-1.1,7.5-0.5c-0.8,0.5-1.7,0.9-2.3,1.6c-4,4.1-8,8.3-12,12.4c-5.7,5.8-11.4,11.7-17,17.5
				c-5.3,5.5-10.7,11-16,16.5c-5.7,5.9-11.5,11.8-17.2,17.7c-5.3,5.5-10.7,11-16,16.5c-8.4,8.6-16.8,17.1-25.2,25.7
				c-5.9,6.1-11.8,12.1-17.7,18.2c-0.5,0.5-0.8,1.2-1.1,1.8c-0.2,0.2-0.3,0.3-0.5,0.5c-0.2,0.2-0.3,0.3-0.5,0.5
				c-0.2,0.2-0.3,0.3-0.5,0.5s-0.3,0.3-0.5,0.5c-0.2,0.2-0.3,0.3-0.5,0.5c-0.2,0.2-0.3,0.3-0.5,0.5c-0.2,0.2-0.3,0.3-0.5,0.5
				c-0.2,0.2-0.3,0.3-0.5,0.5c-0.2,0.2-0.3,0.3-0.5,0.5c-0.1,0-0.1,0-0.2,0.1c0,0,0,0.1,0,0.1c0.1-0.1,0.1-0.1,0.2-0.2
				c0.2-0.2,0.3-0.3,0.5-0.5c0.2-0.2,0.3-0.3,0.5-0.5c0.2-0.2,0.3-0.3,0.5-0.5c0.2-0.2,0.3-0.3,0.5-0.5c0.2-0.2,0.3-0.3,0.5-0.5
				c0.2-0.2,0.3-0.3,0.5-0.5c0.2-0.2,0.3-0.3,0.5-0.5c0.2-0.2,0.3-0.3,0.5-0.5c0.2-0.2,0.3-0.3,0.5-0.5c0.6-0.4,1.4-0.8,1.9-1.3
				c4.8-4.6,9.5-9.2,14.3-13.8c4.8-4.7,9.6-9.3,14.5-14c4.8-4.6,9.5-9.2,14.3-13.8c4.9-4.7,9.8-9.4,14.6-14.1
				c4.5-4.4,9.1-8.8,13.6-13.1c4.9-4.7,9.8-9.4,14.6-14.1c4.8-4.6,9.5-9.2,14.3-13.8c7.9-7.7,15.9-15.5,23.8-23.3
				c0.3-0.3,0.7-0.7,1-1C511.8,172.9,512.2,172.8,512.6,172.6z"/>
			<path class="st27" d="M384.5,295.5c0.4-0.6,0.6-1.3,1.1-1.8c5.9-6.1,11.8-12.2,17.7-18.2c8.4-8.6,16.8-17.1,25.2-25.7
				c5.4-5.5,10.7-11,16-16.5c5.7-5.9,11.5-11.8,17.2-17.7c5.3-5.5,10.7-11,16-16.5c5.7-5.8,11.4-11.7,17-17.5c4-4.1,8-8.3,12-12.4
				c0.6-0.7,1.5-1.1,2.3-1.6c2.3,0.8,3.8,2.3,3.5,4.9c-0.3,0.2-0.7,0.3-1,0.5c-0.4,0.3-0.7,0.7-1,1c-7.9,7.8-15.9,15.5-23.8,23.3
				c-4.7,4.6-9.5,9.2-14.3,13.8c-4.9,4.7-9.8,9.4-14.6,14.1c-4.5,4.4-9.1,8.8-13.6,13.1c-4.9,4.7-9.8,9.4-14.6,14.1
				c-4.8,4.6-9.5,9.2-14.3,13.8c-4.8,4.7-9.6,9.3-14.5,14c-4.8,4.6-9.5,9.2-14.3,13.8C385.9,294.7,385.2,295.1,384.5,295.5
				L384.5,295.5z"/>
			<path class="st26" d="M216.4,305.7c-2.6-1.6-5.1-3.2-7.7-4.9c-19.7-13-38.8-26.7-57-41.6c-8.3-6.8-16.3-13.9-24.2-21.1
				c-6.1-5.5-11.9-11.3-17.6-17.3c-9-9.5-17.4-19.5-24-31c-2.6-4.4-4.8-9-5.6-14.2c-0.1-0.4,0-0.8-0.1-1.2c0.4,0.2,0.8,0.3,1,0.5
				c2.2,2,4.5,4.1,6.7,6.2c3.9,3.7,7.7,7.4,11.6,11.1c4.1,4,8.3,8,12.4,11.9c3.9,3.7,7.7,7.4,11.6,11.1c4.1,3.9,8.2,7.9,12.3,11.8
				c4.1,3.9,8.2,7.9,12.3,11.8s8.2,7.9,12.3,11.8c3.9,3.8,7.8,7.5,11.8,11.3c4,3.9,8.1,7.7,12.1,11.6c6.3,6.1,12.5,12.1,18.7,18.2
				c4.1,3.9,8.2,7.8,12.2,11.8C215.8,304.1,216.7,304.6,216.4,305.7z"/>
			<path class="st26" d="M89.7,167.9c3.2,0.2,6,1.6,8.8,3c7.6,3.7,14.4,8.6,20.9,13.8c10.7,8.5,20.5,18,29.9,28
				c17.5,18.7,33.4,38.7,48.1,59.6c6.9,9.7,13.5,19.6,20.1,29.5c0.6,0.9,1,1.8,1.5,2.7c-1.1,0.3-1.6-0.6-2.2-1.2
				c-3.9-4.2-7.8-8.4-11.7-12.6c-5.4-5.8-10.8-11.5-16.3-17.2c-5.2-5.5-10.4-11-15.6-16.5c-5.4-5.7-10.7-11.4-16.1-17
				c-5.2-5.5-10.4-11-15.6-16.5c-5.4-5.7-10.7-11.4-16.1-17c-5.2-5.5-10.4-11-15.6-16.5c-4.1-4.3-8.2-8.5-12.3-12.8
				c-2.5-2.6-4.9-5.2-7.4-7.9C90.1,168.8,90,168.3,89.7,167.9z"/>
			<path class="st27" d="M89.7,167.9c0.2,0.4,0.4,0.9,0.7,1.2c2.4,2.6,4.9,5.3,7.4,7.9c4.1,4.3,8.2,8.5,12.3,12.8
				c5.2,5.5,10.4,11,15.6,16.5c5.4,5.7,10.7,11.4,16.1,17c5.2,5.5,10.4,11,15.6,16.5c5.4,5.7,10.7,11.4,16.1,17
				c5.2,5.5,10.4,11,15.6,16.5c5.4,5.7,10.9,11.5,16.3,17.2c3.9,4.2,7.8,8.4,11.7,12.6c0.6,0.6,1.1,1.5,2.2,1.2
				c0.9,1.3,1.7,2.6,2.7,4c-1.7-0.1-2.2-0.3-5.4-2.7c0.3-1.1-0.6-1.6-1.2-2.2c-4.1-3.9-8.2-7.8-12.2-11.8
				c-6.3-6.1-12.5-12.1-18.7-18.2c-4-3.9-8.1-7.7-12.1-11.6c-3.9-3.8-7.8-7.5-11.8-11.3c-4.1-3.9-8.2-7.9-12.3-11.8
				s-8.2-7.9-12.3-11.8c-4.1-3.9-8.2-7.9-12.3-11.8c-3.9-3.7-7.7-7.4-11.6-11.1c-4.1-4-8.3-8-12.4-11.9c-3.9-3.7-7.7-7.4-11.6-11.1
				c-2.2-2.1-4.4-4.1-6.7-6.2c-0.3-0.3-0.7-0.3-1-0.5c-0.6-6.7,3.7-7.7,8.6-6.9C89.2,167.6,89.4,167.8,89.7,167.9z"/>
			<path class="st12" d="M361.5,319c0.1-0.2,0.1-0.4,0.2-0.6C361.6,318.6,361.5,318.8,361.5,319C361.5,319,361.5,319,361.5,319z"/>
			<path class="st12" d="M361,319.5c0.2-0.2,0.3-0.3,0.5-0.5c0,0,0,0,0,0C361.3,319.1,361.2,319.3,361,319.5z"/>
			<path class="st12" d="M361,319.5c-0.2,0.2-0.3,0.3-0.5,0.5c0,0,0,0,0,0C360.7,319.8,360.8,319.6,361,319.5z"/>
			<path class="st12" d="M232.3,319.5c-0.1-0.1-0.1-0.1-0.2-0.2c0,0,0.1,0,0.1,0C232.3,319.3,232.3,319.4,232.3,319.5
				C232.4,319.5,232.3,319.5,232.3,319.5z"/>
			<path class="st12" d="M233.8,446.2c-0.2,0.3-0.3,0.7-0.5,1C233.5,446.8,233.6,446.5,233.8,446.2z"/>
			<path class="st12" d="M230,450.5c0,0.2,0,0.3,0,0.5c-0.2-0.1-0.4-0.2-0.6-0.2C229.5,450.6,229.7,450.6,230,450.5z"/>
			<path class="st12" d="M233.3,447.1c-0.2,0.2-0.3,0.3-0.5,0.5C233,447.4,233.2,447.3,233.3,447.1z"/>
			<path class="st12" d="M232.8,447.6c-0.2,0.2-0.3,0.3-0.5,0.5C232.5,447.9,232.7,447.8,232.8,447.6z"/>
			<path class="st12" d="M232.4,448.1c-0.2,0.2-0.3,0.3-0.5,0.5C232,448.4,232.2,448.2,232.4,448.1z"/>
			<path class="st12" d="M231.9,448.6c-0.2,0.2-0.3,0.3-0.5,0.5C231.5,448.9,231.7,448.7,231.9,448.6z"/>
			<path class="st12" d="M231.4,449c-0.2,0.2-0.3,0.3-0.5,0.5C231.1,449.4,231.2,449.2,231.4,449z"/>
			<path class="st12" d="M230.9,449.5c-0.2,0.2-0.3,0.3-0.5,0.5C230.6,449.8,230.8,449.7,230.9,449.5z"/>
			<path class="st12" d="M230.4,450c-0.2,0.2-0.3,0.3-0.5,0.5C230.1,450.3,230.3,450.2,230.4,450z"/>
			<path class="st13" d="M308.2,383.3c0,0.1,0,0.3,0,0.4c0,0-0.2,0-0.2,0s-0.2,0-0.2,0C307.9,383.6,308,383.4,308.2,383.3z"/>
			<path class="st21" d="M332.7,393.5c-1.7-3-3.3-5.9-4.9-8.9c-0.3-0.5-0.3-1.3-0.1-1.8c1.7-3.2,3.4-6.2,5.1-9.4
				c0.1-0.1,0.3-0.1,0.4-0.2c0,5.3,0,10.7-0.1,16C333.1,390.6,332.8,392.1,332.7,393.5z"/>
			<path class="st0" d="M307.3,408.3c-2.7,1.8-5.4,3.6-8.6,4.3c0.3-0.3,0.4-0.7,0.8-0.8c2.2-1.1,4.3-2.2,6.5-3.3
				C306.3,408.3,306.8,408.3,307.3,408.3z"/>
			<path class="st0" d="M308.2,407.8c-0.3,0.2-0.6,0.3-1,0.5C307.6,408.1,307.9,407.9,308.2,407.8z"/>
			<path class="st0" d="M310.1,360.8c-2.7-1.4-5.4-2.9-8.2-4.3c0.1,0,0.2-0.2,0.2-0.1c2.7,1.4,5.4,2.8,8.1,4.3
				C310.2,360.6,310.1,360.7,310.1,360.8z"/>
			<path class="st0" d="M313,362.2c-0.3-0.2-0.6-0.3-1-0.5C312.6,361.3,313,361.5,313,362.2z"/>
			<path class="st0" d="M312,361.7c-0.3-0.2-0.6-0.3-1-0.5C311.7,360.8,312,361,312,361.7z"/>
			<path class="st0" d="M311.1,361.2c-0.3-0.2-0.6-0.3-1-0.5C310.7,360.3,311,360.5,311.1,361.2z"/>
			<path class="st0" d="M302,356.4c-0.3-0.2-0.6-0.3-1-0.5C301.6,355.5,301.9,355.7,302,356.4z"/>
			<path class="st27" d="M375.4,462.5c-0.2-0.2-0.3-0.3-0.5-0.5C375.1,462.2,375.2,462.3,375.4,462.5z"/>
			<path class="st27" d="M375.9,463c-0.2-0.2-0.3-0.3-0.5-0.5C375.6,462.6,375.7,462.8,375.9,463z"/>
			<path class="st27" d="M213.2,466.8c0-0.1,0.1-0.1,0.1-0.2C213.2,466.7,213.2,466.7,213.2,466.8
				C213.1,466.8,213.2,466.8,213.2,466.8z"/>
			<path class="st27" d="M213.1,466.8c-0.2,0.2-0.3,0.3-0.5,0.5c0,0,0,0,0,0C212.8,467.1,213,467,213.1,466.8
				C213.2,466.8,213.1,466.8,213.1,466.8z"/>
			<path class="st27" d="M212.2,467.8c0.2-0.2,0.3-0.3,0.5-0.5c0,0,0,0,0,0C212.5,467.4,212.3,467.6,212.2,467.8
				C212.2,467.8,212.2,467.8,212.2,467.8z"/>
			<path class="st27" d="M211.7,468.2c0.2-0.2,0.3-0.3,0.5-0.5c0,0,0,0,0,0C212,467.9,211.9,468.1,211.7,468.2L211.7,468.2z"/>
			<path class="st27" d="M211.7,468.2c-0.2,0.2-0.3,0.3-0.5,0.5l0,0C211.4,468.6,211.6,468.4,211.7,468.2
				C211.7,468.2,211.7,468.2,211.7,468.2z"/>
			<path class="st27" d="M211.2,468.7c-0.2,0.2-0.3,0.3-0.5,0.5c0,0,0,0,0,0C210.9,469,211.1,468.9,211.2,468.7
				C211.2,468.7,211.2,468.7,211.2,468.7z"/>
			<path class="st27" d="M210.3,469.7c0.2-0.2,0.3-0.3,0.5-0.5c0,0,0,0,0,0C210.6,469.4,210.4,469.5,210.3,469.7
				C210.3,469.7,210.3,469.7,210.3,469.7z"/>
			<path class="st27" d="M210.3,469.7c-0.2,0.2-0.3,0.3-0.5,0.5c0,0,0,0,0,0C210,470,210.1,469.8,210.3,469.7
				C210.3,469.7,210.3,469.7,210.3,469.7z"/>
			<path class="st27" d="M209.3,470.6c0.2-0.2,0.3-0.3,0.5-0.5c0,0,0,0,0,0C209.6,470.3,209.5,470.5,209.3,470.6L209.3,470.6z"/>
			<path class="st27" d="M209.3,470.6c-0.1,0.1-0.1,0.1-0.2,0.2c0,0,0-0.1,0-0.1C209.2,470.7,209.3,470.7,209.3,470.6
				C209.3,470.6,209.3,470.6,209.3,470.6z"/>
			<path class="st27" d="M380.7,299.3c0.2-0.2,0.3-0.3,0.5-0.5l0,0C381,299,380.9,299.2,380.7,299.3L380.7,299.3z"/>
			<path class="st27" d="M384.5,295.5c-0.2,0.2-0.3,0.3-0.5,0.5c0,0,0,0,0,0C384.2,295.8,384.3,295.6,384.5,295.5
				C384.5,295.5,384.5,295.5,384.5,295.5z"/>
			<path class="st27" d="M383.6,296.4c0.2-0.2,0.3-0.3,0.5-0.5c0,0,0,0,0,0C383.9,296.1,383.7,296.3,383.6,296.4
				C383.6,296.4,383.6,296.4,383.6,296.4z"/>
			<path class="st27" d="M383.1,296.9c0.2-0.2,0.3-0.3,0.5-0.5c0,0,0,0,0,0C383.4,296.6,383.3,296.8,383.1,296.9
				C383.1,296.9,383.1,296.9,383.1,296.9z"/>
			<path class="st27" d="M382.6,297.4c0.2-0.2,0.3-0.3,0.5-0.5c0,0,0,0,0,0C382.9,297.1,382.8,297.2,382.6,297.4
				C382.6,297.4,382.6,297.4,382.6,297.4z"/>
			<path class="st27" d="M382.1,297.9c0.2-0.2,0.3-0.3,0.5-0.5c0,0,0,0,0,0C382.5,297.6,382.3,297.7,382.1,297.9
				C382.1,297.9,382.1,297.9,382.1,297.9z"/>
			<path class="st27" d="M381.6,298.3c0.2-0.2,0.3-0.3,0.5-0.5c0,0,0,0,0,0C382,298,381.8,298.2,381.6,298.3
				C381.7,298.4,381.6,298.3,381.6,298.3z"/>
			<path class="st27" d="M381.2,298.8c0.2-0.2,0.3-0.3,0.5-0.5c0,0,0,0,0,0C381.5,298.5,381.3,298.7,381.2,298.8
				C381.2,298.8,381.2,298.8,381.2,298.8z"/>
			<path class="st27" d="M380.7,299.3c-0.2,0.2-0.3,0.3-0.5,0.5l0,0C380.4,299.6,380.5,299.5,380.7,299.3
				C380.7,299.3,380.7,299.3,380.7,299.3z"/>
			<path class="st27" d="M380.2,299.8c-0.1,0.1-0.1,0.1-0.2,0.2c0,0,0-0.1,0-0.1C380.1,299.8,380.1,299.8,380.2,299.8L380.2,299.8z"
				/>
		</g>
	</g>
	<path class="st28" d="M218.9,262l4,31.4c8.7-4.8,22.1-10.7,39.3-13.2c28.7-4.1,51.7,3.7,62.4,8.3c-2.1,8.1-4.1,16.2-6.2,24.3
		c20.2-7.8,40.4-15.5,60.6-23.3c-13.4-17.4-26.9-34.8-40.3-52.2c-2.3,8.1-4.6,16.3-6.9,24.4c-8.2-4.2-18.4-8.2-30.6-10.7
		C263.7,243.2,232.4,255.6,218.9,262z"/>
	<path class="st28" d="M376.1,503l-4-31.4c-8.7,4.8-22.1,10.7-39.3,13.2c-28.7,4.1-51.7-3.7-62.4-8.3c2.1-8.1,4.1-16.2,6.2-24.3
		c-20.2,7.8-40.4,15.5-60.6,23.3c13.4,17.4,26.9,34.8,40.3,52.2c2.3-8.1,4.6-16.3,6.9-24.4c8.2,4.2,18.4,8.2,30.6,10.7
		C331.2,521.8,362.5,509.4,376.1,503z"/>
</g>
<g id="Layer_3">
</g>
<g id="Layer_2">
</g>
</svg>
